<?xml version="1.0" encoding="UTF-8" standalone="no"?>
<svg
   xmlns:dc="http://purl.org/dc/elements/1.1/"
   xmlns:cc="http://creativecommons.org/ns#"
   xmlns:rdf="http://www.w3.org/1999/02/22-rdf-syntax-ns#"
   xmlns:svg="http://www.w3.org/2000/svg"
   xmlns="http://www.w3.org/2000/svg"
   xmlns:sodipodi="http://sodipodi.sourceforge.net/DTD/sodipodi-0.dtd"
   xmlns:inkscape="http://www.inkscape.org/namespaces/inkscape"
   version="1.1"
   width="789px"
   height="788px"
   style="shape-rendering:geometricPrecision; text-rendering:geometricPrecision; image-rendering:optimizeQuality; fill-rule:evenodd; clip-rule:evenodd"
   id="svg861"
   sodipodi:docname="birdr-new.svg"
   inkscape:version="1.0.2 (e86c8708, 2021-01-15)">
  <metadata
     id="metadata867">
    <rdf:RDF>
      <cc:Work
         rdf:about="">
        <dc:format>image/svg+xml</dc:format>
        <dc:type
           rdf:resource="http://purl.org/dc/dcmitype/StillImage" />
        <dc:title></dc:title>
      </cc:Work>
    </rdf:RDF>
  </metadata>
  <defs
     id="defs865" />
  <sodipodi:namedview
     pagecolor="#ffffff"
     bordercolor="#666666"
     borderopacity="1"
     objecttolerance="10"
     gridtolerance="10"
     guidetolerance="10"
     inkscape:pageopacity="0"
     inkscape:pageshadow="2"
     inkscape:window-width="1802"
     inkscape:window-height="1201"
     id="namedview863"
     showgrid="false"
     inkscape:zoom="0.95572728"
     inkscape:cx="440.01993"
     inkscape:cy="294.48295"
     inkscape:window-x="318"
     inkscape:window-y="69"
     inkscape:window-maximized="0"
     inkscape:current-layer="svg861" />
  <g
     id="g835"
     transform="matrix(1.1233444,0,0,1.112295,-52.145189,-40.758191)" />
  <g
     id="g843"
     transform="matrix(1.1233444,0,0,1.112295,-52.145189,-40.758191)">
    <path
       style="opacity:1"
       fill="#d8b165"
       d="m 380.5,50.5 c 40.874,-1.2243 80.874,3.9424 120,15.5 -58.424,10.4334 -99.924,42.6 -124.5,96.5 -19.473,54.736 -12.306,105.57 21.5,152.5 -0.5,0.5 -1,1 -1.5,1.5 C 345.144,274.802 286.978,259.302 221.5,270 158.74,282.632 109.907,315.799 75,369.5 103.086,279.881 162.586,223.381 253.5,200 c 30.328,-6.205 60.995,-9.205 92,-9 1.77,-4.337 3.104,-8.837 4,-13.5 -61.598,-6.208 -119.598,5.958 -174,36.5 -4.828,3.581 -9.828,6.915 -15,10 -18.015,-0.763 -36.015,-2.096 -54,-4 -1.124,-0.249 -2.124,-0.749 -3,-1.5 64.053,-102.211 156.386,-158.2108 277,-168 z"
       id="path841" />
  </g>
  <g
     id="g847"
     transform="matrix(1.1233444,0,0,1.112295,-52.145189,-40.758191)">
    <path
       style="opacity:1"
       fill="#000000"
       d="m 476.5,120.5 c 14.974,0.312 25.974,6.979 33,20 -16.299,2.617 -21.799,11.617 -16.5,27 3.065,4.283 7.232,6.616 12.5,7 -2.075,5.245 -5.742,9.078 -11,11.5 -11.855,5.308 -23.522,4.641 -35,-2 -15.015,-12.874 -18.515,-28.374 -10.5,-46.5 6.631,-9.893 15.798,-15.56 27.5,-17 z"
       id="path845" />
  </g>
  <g
     id="g851"
     transform="matrix(1.1233444,0,0,1.112295,-52.145189,-40.758191)">
    <path
       style="opacity:1"
       fill="#5c1808"
       d="m 640.5,152.5 c 58.891,59.73 91.725,131.73 98.5,216 4.962,123.902 -41.205,223.735 -138.5,299.5 -100.143,69.522 -208.143,84.189 -324,44 -9.667,-4.333 -19.333,-8.667 -29,-13 60.899,1.145 113.899,-18.188 159,-58 64.76,-64.199 84.26,-140.366 58.5,-228.5 -12.756,-36.489 -33.756,-67.489 -63,-93 -5.109,-9.383 -10.609,-18.549 -16.5,-27.5 1,-0.667 2,-0.667 3,0 44.962,25.29 91.962,29.29 141,12 67.81,-27.739 104.81,-78.239 111,-151.5 z"
       id="path849" />
  </g>
  <g
     id="g855"
     transform="matrix(1.1233444,0,0,1.112295,-52.145189,-40.758191)">
    <path
       style="opacity:1"
       fill="#5c1808"
       d="m 103.5,221.5 c 17.31,1.432 34.643,3.098 52,5 -47.985,37.636 -80.818,85.636 -98.5,144 -0.0705,-3.275 -0.2371,-6.442 -0.5,-9.5 6.2629,-45.724 20.0963,-89.558 41.5,-131.5 1.6091,-2.907 3.442,-5.573 5.5,-8 z"
       id="path853" />
  </g>
  <g
     id="g859"
     transform="matrix(1.1233444,0,0,1.112295,-52.145189,-40.758191)">
    <path
       style="opacity:1"
       fill="#d8b165"
       d="m 252.5,287.5 c 4.93,-0.303 9.763,0.031 14.5,1 -0.486,27.683 -1.653,55.35 -3.5,83 -0.423,2.818 0.577,4.818 3,6 5.33,0.833 10.663,1.666 16,2.5 9.297,2.234 18.297,4.9 27,8 13.551,-24.672 26.717,-49.505 39.5,-74.5 4.881,0.265 9.215,2.265 13,6 0.315,1.408 -0.018,2.741 -1,4 -15.15,22.809 -29.65,45.975 -43.5,69.5 11.275,9.611 21.608,20.277 31,32 1.333,0.667 2.667,0.667 4,0 22.333,-14.333 44.667,-28.667 67,-43 1.444,-0.781 2.777,-0.614 4,0.5 2.339,3.178 4.006,6.678 5,10.5 -0.333,0.833 -0.667,1.667 -1,2.5 -25.111,12.388 -49.778,25.555 -74,39.5 3.8,6.769 6.633,13.936 8.5,21.5 1.32,7.429 2.82,14.762 4.5,22 0.946,0.487 1.946,0.82 3,1 24.642,-1.571 49.308,-2.904 74,-4 6.254,-1.245 8.587,1.255 7,7.5 -0.03,2.424 -0.363,4.757 -1,7 -27.685,-0.502 -55.352,-1.169 -83,-2 -0.5,0.5 -1,1 -1.5,1.5 -0.794,7.762 -2.127,15.428 -4,23 -2.569,6.713 -4.903,13.38 -7,20 24.059,13.021 48.226,25.854 72.5,38.5 0.522,0.561 0.855,1.228 1,2 -1.883,4.273 -4.383,8.106 -7.5,11.5 -21.934,-13.715 -43.768,-27.548 -65.5,-41.5 -2.195,-1.373 -4.529,-1.706 -7,-1 -2.803,4.436 -5.969,8.603 -9.5,12.5 -7.044,6.548 -14.21,12.881 -21.5,19 14.626,23.754 29.626,47.254 45,70.5 -3.87,3.191 -8.036,6.025 -12.5,8.5 -13.17,-24.851 -26.336,-49.685 -39.5,-74.5 -7.921,2.509 -15.921,5.175 -24,8 -6.561,1.63 -13.228,2.63 -20,3 -0.5,0.5 -1,1 -1.5,1.5 0.602,27.015 1.769,54.015 3.5,81 -0.07,1.272 -0.403,2.438 -1,3.5 -4.655,0.499 -9.321,0.666 -14,0.5 1.022,-28.338 1.855,-56.671 2.5,-85 -8.75,-2.062 -17.583,-4.229 -26.5,-6.5 -5.103,-1.717 -10.103,-3.717 -15,-6 -1.333,-0.667 -2.667,-0.667 -4,0 -12.143,23.119 -24.143,46.286 -36,69.5 -0.865,1.083 -1.865,1.249 -3,0.5 -3.333,-2.667 -6.333,-5.667 -9,-9 13.042,-20.585 26.209,-41.085 39.5,-61.5 1.301,-1.865 1.635,-3.865 1,-6 -11.667,-7.667 -21.333,-17.333 -29,-29 -0.804,-1.304 -1.971,-1.971 -3.5,-2 -18.962,11.818 -37.962,23.652 -57,35.5 -1.135,0.749 -2.135,0.583 -3,-0.5 -2.398,-3.071 -4.398,-6.405 -6,-10 20.705,-10.933 41.205,-21.933 61.5,-33 0.667,-1.333 0.667,-2.667 0,-4 -6.066,-12.659 -9.733,-25.992 -11,-40 -0.956,-1.394 -2.289,-2.061 -4,-2 -17.136,1.488 -34.303,2.654 -51.5,3.5 -9.3511,0.832 -18.6845,0.665 -28,-0.5 -1.8335,-4.497 -2.8335,-9.164 -3,-14 27.5458,0.732 55.046,2.066 82.5,4 1.473,-0.403 2.806,-1.07 4,-2 0.907,-6.016 1.907,-12.016 3,-18 2.702,-8.765 5.369,-17.432 8,-26 -24.93,-13.549 -50.097,-26.716 -75.5,-39.5 -1.2282,-0.779 -2.2282,-1.779 -3,-3 2.0505,-4.611 4.7171,-8.777 8,-12.5 24.87,15.932 49.87,31.598 75,47 7.004,-8.513 14.67,-16.679 23,-24.5 3.08,-2.29 6.247,-4.457 9.5,-6.5 0.667,-1 0.667,-2 0,-3 -15.125,-24.753 -30.625,-49.253 -46.5,-73.5 4.144,-4.335 8.978,-6.501 14.5,-6.5 12.912,25.491 26.078,50.824 39.5,76 0.667,0.333 1.333,0.667 2,1 13.937,-6.109 28.437,-10.109 43.5,-12 -0.639,-29.663 -1.472,-59.329 -2.5,-89 z"
       id="path857" />
  </g>
</svg>
