<?xml version="1.0" standalone="no"?>
<!DOCTYPE svg PUBLIC "-//W3C//DTD SVG 20010904//EN"
 "http://www.w3.org/TR/2001/REC-SVG-20010904/DTD/svg10.dtd">
<svg version="1.0" xmlns="http://www.w3.org/2000/svg"
 width="512.000000pt" height="512.000000pt" viewBox="0 0 512.000000 512.000000"
 preserveAspectRatio="xMidYMid meet">
<metadata>
Created by potrace 1.14, written by Peter Selinger 2001-2017
</metadata>
<g transform="translate(0.000000,512.000000) scale(0.100000,-0.100000)"
fill="#000000" stroke="none">
<path d="M1885 4643 c-27 -14 -52 -29 -55 -33 -3 -4 -16 -13 -29 -20 -52 -27
-157 -132 -212 -212 -139 -202 -183 -449 -126 -693 8 -33 18 -68 22 -77 11
-28 0 -22 -47 25 -85 84 -118 126 -167 209 l-27 48 -21 -28 c-30 -40 -87 -167
-107 -236 -55 -189 -36 -414 50 -595 31 -65 77 -144 94 -161 3 -3 16 -18 30
-33 21 -25 22 -27 5 -21 -32 12 -161 83 -197 109 -10 6 -15 15 -11 18 3 4 2 7
-4 7 -5 0 -25 14 -43 30 -38 34 -46 31 -54 -20 -3 -19 -9 -55 -14 -80 -23
-124 6 -331 63 -447 14 -29 25 -56 25 -60 0 -8 58 -99 85 -133 11 -14 52 -57
91 -97 l71 -72 -113 4 c-62 2 -126 6 -141 9 -15 3 -44 8 -63 10 -73 11 -175
32 -175 36 0 1 -11 3 -25 6 -85 15 -356 131 -434 186 -21 16 -43 28 -47 28
-10 0 -136 88 -141 98 -4 8 -74 62 -82 62 -6 0 5 -33 13 -40 10 -9 56 -114 53
-122 -1 -4 2 -8 8 -8 5 0 10 -4 10 -9 0 -8 32 -64 113 -195 18 -30 21 -34 93
-130 86 -115 99 -130 224 -256 137 -137 188 -180 350 -293 140 -98 174 -119
277 -173 34 -17 67 -36 75 -40 7 -5 15 -9 18 -9 3 -1 34 -15 70 -31 36 -17 83
-37 105 -44 22 -7 46 -17 53 -23 6 -5 12 -6 12 -2 0 4 6 3 13 -3 11 -9 206
-67 259 -77 13 -3 34 -7 48 -10 127 -27 304 -47 430 -48 187 -2 404 17 495 43
17 5 57 14 90 20 33 7 69 16 80 20 11 4 77 26 146 48 127 40 326 130 454 205
39 23 72 44 75 47 3 3 23 17 45 30 37 22 134 91 162 115 6 6 30 26 54 45 52
44 197 179 218 204 9 10 27 31 41 46 45 49 89 104 152 190 62 84 64 85 108 87
72 3 172 12 205 18 17 3 64 13 105 22 41 8 80 16 85 17 37 8 155 51 155 57 0
4 -15 10 -32 14 -69 14 -206 58 -288 93 -141 60 -140 59 -63 61 73 1 185 17
218 30 11 5 47 19 80 31 60 23 195 99 195 111 0 3 -6 6 -12 6 -19 0 -122 13
-144 18 -21 4 -153 34 -169 38 -5 1 -16 6 -22 10 -7 5 -13 6 -13 3 0 -3 -16 2
-35 10 -19 8 -35 11 -35 8 0 -4 -6 -2 -12 3 -7 6 -31 16 -53 23 -44 14 -72 31
-73 43 -4 72 -44 193 -84 258 -15 25 -28 49 -28 53 0 17 -83 118 -142 174 -90
84 -276 191 -360 207 -11 2 -27 6 -36 9 -162 47 -419 17 -586 -67 -53 -27 -76
-42 -145 -92 -7 -5 -41 -38 -76 -72 -66 -64 -105 -116 -146 -193 -42 -81 -44
-81 -123 -11 -59 52 -262 258 -286 290 -14 18 -34 43 -45 56 -11 13 -27 33
-35 45 -8 12 -23 31 -32 42 -10 12 -18 25 -18 29 0 4 -6 14 -13 21 -37 37
-184 305 -238 433 -60 142 -127 359 -144 465 -4 25 -9 54 -11 65 -13 63 -31
201 -28 207 3 5 1 14 -3 22 -7 12 -17 10 -58 -11z"/>
</g>
</svg>
