<?xml version="1.0" standalone="no"?>
<!DOCTYPE svg PUBLIC "-//W3C//DTD SVG 20010904//EN"
 "http://www.w3.org/TR/2001/REC-SVG-20010904/DTD/svg10.dtd">
<svg version="1.0" xmlns="http://www.w3.org/2000/svg"
 width="749.000000pt" height="749.000000pt" viewBox="0 0 749.000000 749.000000"
 preserveAspectRatio="xMidYMid meet">
<metadata>
Created by potrace 1.14, written by Peter Selinger 2001-2017
</metadata>
<g transform="translate(0.000000,749.000000) scale(0.100000,-0.100000)"
fill="#000000" stroke="none">
<path d="M3573 7462 c-18 -2 -33 -7 -33 -11 0 -4 -43 -7 -95 -7 -52 1 -95 -3
-95 -8 0 -5 -7 -3 -15 4 -12 10 -15 10 -15 -2 0 -11 -14 -14 -62 -14 -35 1
-66 -3 -70 -9 -4 -5 -26 -11 -50 -12 -47 -2 -68 -5 -83 -15 -5 -3 -23 -4 -40
-3 -16 2 -37 -2 -45 -9 -8 -8 -28 -13 -45 -12 -16 1 -36 -3 -42 -10 -7 -7 -30
-11 -53 -8 -26 2 -39 0 -37 -8 1 -6 -9 -12 -23 -13 -14 -1 -34 -6 -45 -11 -11
-5 -29 -9 -40 -9 -11 0 -23 -3 -26 -8 -4 -5 -18 -9 -32 -9 -14 0 -28 -6 -30
-13 -3 -6 -16 -11 -28 -10 -13 1 -30 -4 -37 -12 -10 -10 -18 -10 -34 -2 -12 6
-18 7 -14 1 7 -11 -22 -26 -43 -23 -8 1 -17 -2 -20 -7 -3 -6 -13 -12 -21 -14
-8 -2 -20 -10 -27 -18 -8 -10 -12 -11 -13 -3 0 7 -7 10 -15 7 -8 -4 -12 -10
-9 -16 3 -5 -2 -9 -12 -8 -34 4 -45 0 -38 -12 5 -7 0 -9 -14 -6 -15 4 -22 0
-27 -16 -3 -11 -9 -16 -11 -10 -6 14 -44 6 -44 -8 0 -5 -5 -6 -10 -3 -6 3 -13
0 -16 -8 -3 -8 -16 -13 -29 -12 -13 2 -26 -3 -29 -11 -3 -8 -12 -14 -21 -14
-8 0 -15 -4 -15 -10 0 -5 -3 -9 -7 -8 -5 1 -17 -3 -28 -9 -11 -6 -24 -13 -30
-15 -5 -1 -9 -7 -7 -12 2 -5 -4 -6 -13 -3 -8 4 -15 1 -15 -5 0 -6 -3 -9 -6 -5
-3 3 -14 -3 -25 -14 -11 -11 -24 -17 -29 -14 -6 4 -10 1 -10 -5 0 -6 -4 -8
-10 -5 -5 3 -10 2 -10 -4 0 -5 -9 -13 -20 -16 -11 -3 -20 -13 -20 -20 0 -9 -6
-12 -16 -8 -10 4 -20 -1 -26 -11 -5 -9 -13 -14 -19 -11 -5 4 -9 1 -9 -4 0 -6
-7 -11 -16 -11 -8 0 -12 -4 -9 -10 3 -5 -3 -10 -14 -10 -12 0 -21 -5 -21 -11
0 -5 -5 -7 -10 -4 -5 3 -10 1 -10 -5 0 -6 -10 -15 -22 -21 -27 -11 -74 -45
-107 -76 -13 -12 -27 -20 -32 -18 -4 3 -21 -11 -38 -30 -17 -19 -35 -34 -40
-33 -5 2 -25 -14 -45 -34 -20 -21 -42 -38 -47 -38 -6 0 -7 -5 -3 -12 4 -7 3
-8 -5 -4 -7 5 -22 -3 -36 -18 -13 -14 -28 -26 -34 -26 -5 0 -13 -5 -17 -12 -5
-7 -3 -8 7 -3 7 5 -12 -16 -43 -46 -69 -65 -88 -82 -88 -74 0 12 -43 -32 -51
-53 -5 -14 -14 -20 -20 -16 -7 4 -10 1 -7 -6 4 -13 -136 -160 -152 -160 -5 0
-7 -7 -4 -15 4 -8 -1 -17 -10 -21 -9 -3 -14 -9 -12 -13 3 -4 -7 -16 -21 -26
-14 -11 -29 -30 -34 -43 -5 -14 -14 -20 -21 -16 -7 4 -8 3 -4 -4 4 -7 2 -12
-5 -12 -7 0 -10 -3 -7 -6 3 -3 -9 -21 -28 -40 -19 -19 -31 -34 -27 -34 4 0 -1
-7 -12 -16 -11 -8 -20 -18 -20 -22 0 -4 -4 -6 -8 -4 -5 1 -6 -1 -3 -6 6 -10
-28 -64 -37 -56 -3 3 -4 -2 -3 -12 2 -10 -7 -27 -20 -37 -15 -11 -21 -24 -17
-34 4 -11 3 -14 -5 -9 -11 6 -17 -5 -13 -26 0 -5 -6 -8 -14 -8 -9 0 -12 -6 -8
-17 4 -11 3 -14 -5 -9 -8 5 -12 0 -12 -12 0 -11 -10 -27 -22 -36 -13 -9 -16
-14 -8 -10 12 7 13 5 3 -8 -7 -8 -9 -19 -5 -23 4 -5 2 -5 -4 -2 -7 4 -14 -3
-18 -18 -4 -14 -13 -25 -20 -25 -9 0 -12 -7 -9 -20 3 -11 0 -20 -6 -20 -6 0
-11 -7 -11 -15 0 -8 -5 -15 -11 -15 -5 0 -7 -5 -3 -11 3 -6 3 -14 -2 -18 -15
-10 -50 -55 -38 -48 6 3 11 0 11 -8 0 -8 -3 -13 -6 -11 -3 2 -12 -2 -19 -10
-7 -8 -10 -14 -6 -14 3 0 0 -8 -7 -17 -12 -14 -12 -16 1 -9 12 6 11 4 -1 -6
-9 -7 -14 -18 -12 -24 2 -7 -3 -18 -11 -27 -8 -8 -12 -17 -9 -21 4 -3 1 -6 -6
-6 -7 0 -9 -4 -6 -10 3 -5 1 -10 -5 -10 -6 0 -9 -4 -5 -9 3 -5 -1 -15 -8 -23
-7 -7 -12 -23 -11 -35 1 -12 -4 -21 -10 -20 -6 1 -10 -6 -8 -16 2 -11 -5 -25
-15 -33 -14 -11 -15 -13 -3 -14 10 0 11 -3 4 -8 -15 -9 -44 -78 -44 -103 0
-11 -4 -19 -10 -19 -5 0 -10 -13 -10 -30 0 -16 -5 -30 -11 -30 -7 0 -9 -10 -7
-25 3 -13 0 -26 -5 -28 -6 -2 -11 -20 -11 -40 -1 -20 -7 -39 -13 -42 -7 -2
-13 -15 -13 -29 0 -14 -4 -27 -8 -30 -5 -3 -9 -18 -10 -33 0 -15 -7 -41 -16
-57 -10 -20 -12 -34 -5 -42 7 -8 5 -16 -5 -26 -8 -8 -13 -30 -12 -50 2 -19 -2
-45 -7 -59 -6 -13 -11 -41 -13 -63 -2 -21 -6 -46 -10 -55 -6 -14 -10 -46 -13
-134 -1 -16 -5 -26 -9 -23 -11 7 -9 -65 2 -83 6 -9 5 -12 -1 -8 -7 4 -10 -15
-9 -56 1 -34 -1 -74 -5 -89 -5 -17 -3 -29 4 -32 8 -3 7 -5 -2 -5 -11 -1 -11
-4 -1 -16 10 -12 10 -15 0 -15 -10 0 -10 -3 0 -15 10 -12 10 -15 -1 -15 -11 0
-11 -2 1 -10 13 -9 13 -10 0 -10 -13 0 -13 -1 0 -10 13 -9 13 -10 0 -10 -9 0
-11 -3 -5 -8 15 -11 13 -138 -2 -135 -7 2 -10 -4 -7 -12 4 -8 9 -13 13 -11 3
2 6 -49 6 -114 0 -65 3 -116 7 -114 3 2 9 0 13 -6 3 -5 1 -10 -6 -10 -7 0 -8
-4 -2 -12 5 -7 9 -38 8 -68 -1 -30 3 -64 8 -75 6 -11 11 -40 12 -65 0 -25 6
-54 11 -65 6 -11 10 -37 8 -57 -1 -21 2 -38 7 -38 6 0 7 -5 4 -10 -3 -6 -2
-10 2 -10 5 0 8 -18 6 -40 -1 -22 2 -40 8 -40 5 0 9 -10 9 -22 0 -21 15 -75
31 -113 5 -11 10 -32 11 -47 1 -16 6 -28 10 -28 4 0 8 -13 8 -30 0 -16 5 -30
10 -30 6 0 10 -16 10 -36 0 -23 4 -33 11 -28 6 3 10 -1 9 -12 -4 -33 0 -45 10
-39 6 3 9 -4 8 -18 -2 -26 28 -97 42 -97 4 0 6 -9 3 -20 -3 -11 -1 -20 4 -20
5 0 9 -10 10 -22 1 -11 7 -24 13 -28 7 -4 11 -10 11 -14 -3 -19 0 -27 8 -21 6
3 8 -4 6 -15 -2 -11 2 -26 9 -33 7 -7 12 -20 10 -30 -1 -9 4 -17 13 -17 9 0
12 -6 8 -19 -3 -12 0 -21 10 -24 8 -4 12 -13 9 -22 -4 -10 0 -15 12 -15 9 0
14 -3 11 -7 -4 -3 0 -17 9 -31 12 -18 12 -23 3 -17 -8 3 -4 -3 9 -14 13 -11
23 -22 22 -25 -1 -24 3 -35 22 -56 12 -12 22 -32 23 -44 1 -12 8 -21 16 -21 8
0 13 -8 11 -17 -1 -8 4 -18 13 -22 8 -3 15 -13 15 -21 0 -9 6 -23 13 -30 30
-35 37 -45 30 -45 -4 0 -3 -4 4 -8 6 -4 13 -14 15 -22 2 -8 11 -22 20 -31 9
-8 18 -21 20 -29 2 -7 15 -27 31 -43 15 -17 27 -34 27 -39 0 -14 47 -58 54
-50 4 3 4 0 1 -9 -6 -17 25 -59 44 -59 7 0 9 -4 6 -10 -3 -5 -3 -10 2 -10 4 0
14 -12 20 -27 7 -16 25 -36 41 -47 15 -10 29 -26 29 -35 2 -19 69 -91 78 -83
3 3 5 1 5 -5 0 -13 148 -163 161 -163 6 0 8 -4 4 -9 -3 -5 4 -12 15 -16 11 -3
19 -9 17 -13 -3 -11 86 -92 95 -86 4 3 8 0 8 -5 0 -6 7 -11 17 -11 9 0 14 -3
10 -6 -7 -8 38 -54 53 -54 6 0 8 -4 5 -10 -3 -5 2 -10 12 -10 10 0 25 -9 33
-20 8 -11 20 -20 28 -20 7 0 11 -3 9 -7 -3 -5 7 -17 21 -27 15 -12 22 -14 17
-5 -4 8 8 -3 28 -24 20 -21 39 -38 44 -38 19 1 42 -11 40 -21 -1 -6 6 -12 16
-13 10 -2 27 -13 37 -25 10 -12 23 -19 29 -16 5 4 13 0 18 -7 4 -8 28 -25 53
-37 25 -13 52 -30 60 -39 8 -9 22 -17 30 -19 8 -2 18 -8 21 -14 3 -5 9 -9 13
-9 3 1 8 0 11 0 3 -1 9 -2 15 -3 5 0 18 -9 29 -18 11 -9 22 -14 25 -11 3 4 6
0 6 -7 0 -7 3 -11 6 -7 4 3 13 -1 21 -9 8 -8 19 -12 24 -8 5 3 13 -5 18 -18 6
-13 10 -17 11 -8 0 12 4 11 15 -4 7 -10 19 -15 25 -11 6 4 17 -1 24 -11 8 -11
20 -15 30 -11 10 4 15 3 11 -3 -3 -6 -3 -10 2 -11 29 -2 47 -9 53 -20 4 -6 12
-9 18 -5 6 3 12 1 14 -4 2 -6 12 -12 21 -14 10 -1 22 -7 25 -12 4 -5 14 -10
22 -10 25 -1 80 -25 80 -35 0 -4 7 -6 15 -2 9 3 23 -1 33 -10 9 -8 27 -13 40
-11 13 2 25 -2 28 -10 3 -8 13 -12 23 -9 9 2 23 -2 30 -11 7 -8 18 -13 25 -10
7 3 25 -2 40 -10 16 -8 35 -12 44 -9 10 4 13 2 8 -5 -5 -8 3 -12 23 -12 17 0
31 -4 31 -10 0 -5 14 -10 30 -10 17 0 30 -5 30 -11 0 -7 10 -9 25 -7 14 3 28
2 30 -2 3 -5 14 -6 25 -3 11 3 20 1 20 -5 0 -13 80 -21 80 -7 0 5 7 2 14 -7 9
-13 26 -17 55 -16 24 1 46 -3 49 -8 4 -6 27 -10 52 -11 57 0 92 -11 84 -25 -4
-7 -2 -8 5 -4 11 7 52 9 124 7 16 -1 26 -5 23 -9 -7 -12 685 -9 702 2 8 4 44
9 80 9 37 0 72 4 79 9 7 5 36 11 65 12 29 2 64 7 78 13 18 8 27 7 32 -1 6 -8
8 -8 8 1 0 7 6 10 14 7 8 -3 20 1 27 8 9 10 25 12 55 8 24 -4 43 -4 42 -1 -2
22 6 26 43 23 22 -3 46 1 52 7 6 6 24 11 40 11 16 0 26 4 22 10 -4 6 6 10 24
10 16 0 33 5 37 11 3 6 17 9 30 6 17 -3 24 0 24 11 0 11 7 13 30 8 17 -3 29
-2 26 3 -8 12 18 21 43 16 12 -2 20 1 18 7 -1 7 11 13 27 14 16 2 33 8 37 15
4 7 14 9 22 6 9 -3 21 0 27 8 6 8 18 11 25 8 8 -3 22 3 31 12 9 9 22 14 30 11
7 -3 14 0 16 6 2 6 15 13 29 15 13 2 26 8 27 13 2 6 8 8 13 4 5 -3 9 0 9 5 0
6 3 10 8 9 12 -3 52 13 52 22 0 4 9 6 20 3 14 -4 20 -1 18 8 -2 9 5 13 20 11
14 -2 21 1 20 10 -2 8 5 12 20 10 12 -2 22 0 21 5 -3 20 2 25 16 13 12 -10 15
-10 15 4 0 9 8 16 20 16 11 0 20 5 20 11 0 6 7 8 16 5 9 -3 12 -2 9 5 -4 6 2
13 14 16 11 3 18 10 14 16 -4 6 2 8 15 5 15 -4 22 -2 22 8 0 7 6 11 14 8 7 -3
21 2 30 11 9 9 20 14 25 10 5 -3 13 0 17 6 5 8 3 9 -6 4 -9 -5 -11 -4 -6 3 4
7 14 12 22 12 8 0 14 5 14 10 0 6 6 10 13 10 14 0 46 22 83 57 15 13 25 17 28
10 3 -8 5 -8 5 1 1 7 6 10 11 7 6 -3 10 1 10 10 0 9 5 13 10 10 6 -3 10 1 10
9 0 10 6 13 16 9 9 -3 21 3 30 16 8 11 21 21 29 21 8 0 19 8 24 18 6 9 11 13
11 9 0 -4 6 -2 14 5 8 7 12 16 10 19 -2 4 12 14 31 23 19 9 41 27 50 39 8 12
19 22 23 22 4 0 6 3 5 7 -2 4 6 10 17 13 11 4 18 10 15 15 -3 4 3 7 12 6 10
-2 30 12 46 33 16 20 33 35 38 33 5 -1 9 2 9 6 0 11 150 162 161 162 5 0 9 5
9 10 0 10 36 50 45 50 3 0 6 3 8 7 1 4 23 28 50 52 26 25 47 50 47 56 1 15 33
50 54 58 10 4 16 10 13 13 -7 7 -3 12 52 75 23 25 39 48 36 51 -3 3 11 21 30
41 20 21 31 37 24 37 -6 0 0 9 15 21 14 11 26 30 26 41 0 12 3 19 6 15 8 -8
34 18 34 35 1 18 26 49 33 41 4 -3 7 3 7 15 0 12 5 22 11 22 6 0 8 7 5 16 -3
8 -2 12 4 9 6 -3 10 3 10 14 0 12 5 20 11 18 6 -1 13 7 15 17 1 10 7 22 12 25
5 3 8 14 7 23 -2 10 0 16 3 15 4 -1 8 2 9 6 1 5 10 15 20 23 10 7 14 14 9 14
-6 0 -1 7 10 15 10 8 15 15 11 15 -4 0 -2 10 5 22 7 13 11 26 10 31 -1 4 2 7
7 7 5 0 12 11 15 25 4 14 11 23 16 20 5 -3 7 0 4 8 -3 8 1 21 8 28 14 15 20
34 21 59 0 8 8 23 18 34 10 10 16 23 12 29 -3 5 -2 12 3 16 16 11 35 52 29 61
-4 6 -1 10 4 10 6 0 10 6 8 12 -1 7 3 12 9 11 7 -1 9 8 6 22 -3 16 0 25 8 25
7 0 10 6 7 14 -3 8 -1 16 5 18 6 2 12 15 13 28 1 14 3 31 4 38 0 7 5 11 10 8
4 -3 8 5 7 17 -1 12 4 32 12 44 7 12 12 30 10 40 -2 10 2 17 10 15 8 -1 11 6
8 23 -3 15 0 25 7 25 7 0 6 4 -3 10 -13 9 -13 10 0 10 11 0 16 9 15 28 -1 15
3 33 9 40 5 7 10 23 11 35 1 12 7 34 13 49 6 15 9 36 7 47 -2 12 1 21 6 21 6
0 7 5 4 10 -3 6 -2 10 2 10 5 0 8 12 7 28 0 15 4 30 9 34 6 3 9 29 8 57 -1 28
3 51 9 51 5 0 7 7 4 15 -4 8 -2 15 2 15 5 0 8 24 8 53 -1 28 3 58 10 66 9 12
8 13 -4 7 -13 -7 -13 -6 0 6 11 10 15 35 14 106 0 50 3 92 8 92 5 0 6 5 3 10
-3 6 -2 10 2 10 7 0 9 44 3 60 -1 3 -1 10 0 15 5 21 5 353 0 353 -18 -1 -21 4
-10 17 7 8 8 15 3 15 -6 0 -10 38 -10 95 0 66 -4 99 -14 112 -8 9 -9 14 -2 10
8 -5 11 -1 10 12 0 11 -4 18 -8 15 -4 -2 -7 22 -6 53 1 42 -2 57 -12 55 -9 -2
-11 10 -8 42 2 27 -1 47 -7 50 -6 3 -5 5 2 5 11 1 11 4 0 15 -8 7 -14 31 -13
52 0 22 -6 45 -12 52 -7 7 -11 27 -9 43 2 17 -2 33 -8 35 -7 3 -12 19 -11 37
0 18 -4 35 -8 38 -5 4 -10 23 -10 43 -1 20 -7 38 -15 41 -7 3 -10 9 -7 15 4 6
0 24 -9 40 -10 21 -11 30 -3 30 8 0 8 3 2 8 -5 4 -17 16 -25 26 -13 18 -13 19
0 11 13 -8 13 -7 1 8 -7 9 -10 17 -7 17 4 0 1 10 -6 23 -7 12 -11 28 -10 35 2
7 -3 15 -11 18 -9 3 -13 16 -11 36 3 22 0 29 -10 25 -10 -4 -12 0 -9 14 3 11
0 19 -8 19 -7 0 -9 3 -6 7 4 3 1 13 -6 21 -10 13 -9 14 3 7 11 -6 10 -3 -3 12
-9 11 -14 23 -10 26 3 4 -1 13 -11 20 -9 7 -18 22 -19 35 0 12 -5 22 -10 22
-5 0 -7 9 -4 19 3 12 -1 22 -9 25 -8 3 -14 9 -13 13 3 20 -2 34 -11 28 -5 -3
-8 7 -5 23 2 23 -2 32 -20 42 -15 8 -22 19 -20 31 3 12 -2 19 -12 19 -9 0 -14
3 -10 6 3 4 0 19 -8 34 -8 15 -11 31 -7 35 4 5 1 5 -5 1 -8 -4 -13 -1 -13 8 0
9 -3 16 -8 16 -8 0 -38 61 -34 73 1 4 -5 7 -13 7 -8 0 -12 6 -9 14 3 7 -6 22
-19 32 -13 11 -22 24 -20 30 2 5 -6 20 -17 31 -11 12 -21 28 -22 35 -2 7 -11
19 -20 26 -10 7 -18 19 -18 26 0 8 -10 21 -22 30 -13 9 -16 14 -8 10 13 -7 13
-6 0 12 -7 10 -20 24 -26 30 -7 6 -14 17 -16 25 -2 8 -18 28 -35 45 -18 18
-33 36 -33 41 0 16 -47 63 -55 55 -4 -4 -5 0 -3 8 2 9 -3 14 -12 12 -11 -3
-12 -1 -4 8 9 9 1 22 -30 53 -22 22 -40 44 -38 49 1 4 -5 8 -14 8 -9 0 -14 5
-12 11 5 14 -281 301 -305 307 -4 1 -24 19 -45 40 -20 20 -46 44 -56 52 -18
13 -19 13 -11 0 5 -8 -12 7 -38 33 -27 27 -53 45 -59 41 -7 -4 -8 -3 -4 4 6
11 -6 16 -27 13 -4 0 -6 2 -5 6 4 14 -36 53 -54 53 -10 0 -18 5 -18 10 0 6 -7
10 -15 10 -8 0 -15 5 -15 10 0 6 -7 10 -16 10 -8 0 -12 5 -9 10 3 6 -3 10 -14
10 -12 0 -21 7 -21 15 0 9 -6 12 -15 9 -8 -4 -15 -1 -15 5 0 6 -7 11 -15 11
-8 0 -15 5 -15 10 0 6 -7 10 -15 10 -8 0 -15 3 -15 8 0 4 -14 13 -30 20 -17 8
-27 18 -23 24 4 7 -2 9 -15 6 -16 -4 -22 -2 -22 9 0 9 -6 13 -15 10 -8 -4 -22
4 -33 18 -11 13 -22 22 -26 18 -3 -3 -15 2 -26 12 -11 10 -20 14 -20 9 0 -5
-7 0 -15 10 -8 11 -15 17 -15 13 0 -4 -19 3 -42 15 -24 12 -45 22 -48 23 -3 0
-16 11 -29 24 -14 14 -26 19 -30 13 -4 -7 -12 -6 -23 2 -10 7 -15 16 -11 20 4
4 0 4 -9 1 -9 -4 -19 -1 -23 4 -3 6 -10 9 -15 6 -5 -3 -12 -1 -15 5 -5 8 -12
7 -23 -2 -10 -8 -13 -9 -9 -1 4 7 -1 14 -13 18 -11 3 -20 10 -20 14 0 4 -8 7
-19 8 -10 1 -39 11 -64 23 -25 12 -50 19 -55 16 -6 -3 -13 1 -16 10 -3 8 -10
12 -16 9 -5 -3 -10 -1 -10 6 0 9 -3 9 -14 0 -11 -10 -17 -8 -25 6 -6 10 -11
15 -11 10 0 -4 -13 -1 -29 7 -15 8 -40 13 -54 10 -20 -3 -25 -1 -21 10 4 11
-2 14 -26 12 -18 -1 -34 3 -37 9 -2 7 -19 11 -38 10 -20 -1 -36 4 -39 11 -3 8
-17 11 -35 9 -17 -2 -31 1 -31 6 0 6 -4 7 -10 4 -5 -3 -10 -2 -10 3 0 5 -20 8
-45 7 -24 -1 -42 1 -40 5 7 11 -32 19 -62 14 -15 -3 -29 0 -33 6 -4 6 -27 12
-51 13 -24 0 -47 5 -50 10 -4 6 -37 10 -73 11 -38 0 -66 5 -66 11 0 6 -41 10
-112 9 -62 -1 -119 3 -125 8 -12 9 -308 17 -380 10z m-723 -358 c0 -8 -19 -13
-24 -6 -3 5 1 9 9 9 8 0 15 -2 15 -3z m-400 -130 c0 -8 -19 -13 -24 -6 -3 5 1
9 9 9 8 0 15 -2 15 -3z m1005 -24 c3 -5 2 -10 -4 -10 -5 0 -13 5 -16 10 -3 6
-2 10 4 10 5 0 13 -4 16 -10z m1203 -115 c-3 -3 -9 2 -12 12 -6 14 -5 15 5 6
7 -7 10 -15 7 -18z m-1768 1 c0 -3 -4 -8 -10 -11 -5 -3 -10 -1 -10 4 0 6 5 11
10 11 6 0 10 -2 10 -4z m1797 -68 c-3 -8 -6 -5 -6 6 -1 11 2 17 5 13 3 -3 4
-12 1 -19z m976 -113 c-3 -9 -8 -14 -10 -11 -3 3 -2 9 2 15 9 16 15 13 8 -4z
m-1475 -90 c-3 -3 -9 2 -12 12 -6 14 -5 15 5 6 7 -7 10 -15 7 -18z m1887 -215
c-3 -5 -12 -10 -18 -10 -7 0 -6 4 3 10 19 12 23 12 15 0z m-4740 -100 c4 -6 1
-9 -7 -8 -7 2 -12 -3 -10 -9 1 -7 -2 -13 -8 -13 -14 0 -13 13 2 28 15 15 15
15 23 2z m-85 -90 c-6 -11 -13 -20 -15 -20 -2 0 -3 9 -2 20 1 11 7 20 14 20
11 0 11 -5 3 -20z m3623 -54 c4 -10 1 -13 -9 -9 -7 3 -14 9 -14 14 0 14 17 10
23 -5z m-643 -240 c0 -3 -4 -8 -10 -11 -5 -3 -10 -1 -10 4 0 6 5 11 10 11 6 0
10 -2 10 -4z m-1365 -105 c-9 -8 -36 -10 -30 -2 2 4 11 8 20 8 8 0 13 -3 10
-6z m-155 -11 c0 -5 -5 -10 -11 -10 -5 0 -7 5 -4 10 3 6 8 10 11 10 2 0 4 -4
4 -10z m3667 -72 c-3 -8 -6 -5 -6 6 -1 11 2 17 5 13 3 -3 4 -12 1 -19z m-5162
-7 c3 -5 2 -12 -3 -15 -5 -3 -9 1 -9 9 0 17 3 19 12 6z m4775 -1 c0 -5 -5 -10
-11 -10 -5 0 -7 5 -4 10 3 6 8 10 11 10 2 0 4 -4 4 -10z m-2820 -22 c0 -9 4
-8 11 2 7 10 9 11 7 2 -2 -8 -7 -13 -11 -13 -4 1 -14 1 -23 1 -8 0 -12 5 -9
10 9 14 25 12 25 -2z m74 4 c3 -5 -1 -9 -9 -9 -8 0 -12 4 -9 9 3 4 7 8 9 8 2
0 6 -4 9 -8z m1431 -2 c3 -5 1 -10 -4 -10 -6 0 -11 5 -11 10 0 6 2 10 4 10 3
0 8 -4 11 -10z m2005 6 c0 -2 -8 -10 -17 -17 -16 -13 -17 -12 -4 4 13 16 21
21 21 13z m-2150 -20 c0 -2 -8 -10 -17 -17 -16 -13 -17 -12 -4 4 13 16 21 21
21 13z m-2070 -66 c0 -5 -5 -10 -11 -10 -5 0 -7 5 -4 10 3 6 8 10 11 10 2 0 4
-4 4 -10z m3495 -20 c-3 -5 -12 -10 -18 -10 -7 0 -6 4 3 10 19 12 23 12 15 0z
m-4825 -14 c0 -2 -7 -7 -16 -10 -8 -3 -12 -2 -9 4 6 10 25 14 25 6z m794 -24
c3 -5 -1 -9 -9 -9 -8 0 -12 4 -9 9 3 4 7 8 9 8 2 0 6 -4 9 -8z m4866 -62 c0
-5 -5 -10 -11 -10 -5 0 -7 5 -4 10 3 6 8 10 11 10 2 0 4 -4 4 -10z m-3283 -50
c-1 -21 -10 -18 -13 5 -1 8 2 15 6 15 5 0 8 -9 7 -20z m3323 -24 c0 -3 -4 -8
-10 -11 -5 -3 -10 -1 -10 4 0 6 5 11 10 11 6 0 10 -2 10 -4z m-5840 -60 c0 -2
-7 -7 -16 -10 -8 -3 -12 -2 -9 4 6 10 25 14 25 6z m5684 -94 c3 -5 -1 -9 -9
-9 -8 0 -12 4 -9 9 3 4 7 8 9 8 2 0 6 -4 9 -8z m-5820 -170 c3 -5 -1 -9 -9 -9
-8 0 -12 4 -9 9 3 4 7 8 9 8 2 0 6 -4 9 -8z m-324 -6 c0 -2 -7 -7 -16 -10 -8
-3 -12 -2 -9 4 6 10 25 14 25 6z m6260 -76 c0 -5 -5 -10 -11 -10 -5 0 -7 5 -4
10 3 6 8 10 11 10 2 0 4 -4 4 -10z m-4506 -58 c3 -5 -1 -9 -9 -9 -8 0 -12 4
-9 9 3 4 7 8 9 8 2 0 6 -4 9 -8z m-1024 -38 c0 -8 -19 -13 -24 -6 -3 5 1 9 9
9 8 0 15 -2 15 -3z m790 -4 c0 -5 -5 -10 -11 -10 -5 0 -7 5 -4 10 3 6 8 10 11
10 2 0 4 -4 4 -10z m4784 2 c3 -5 -1 -9 -9 -9 -8 0 -15 4 -15 9 0 4 4 8 9 8 6
0 12 -4 15 -8z m-4859 -22 c3 -5 1 -10 -4 -10 -6 0 -11 5 -11 10 0 6 2 10 4
10 3 0 8 -4 11 -10z m1635 6 c0 -3 -4 -8 -10 -11 -5 -3 -10 -1 -10 4 0 6 5 11
10 11 6 0 10 -2 10 -4z m-2570 -80 c0 -2 -8 -10 -17 -17 -16 -13 -17 -12 -4 4
13 16 21 21 21 13z m55 -95 c3 -5 2 -12 -3 -15 -5 -3 -9 1 -9 9 0 17 3 19 12
6z m1328 -71 c3 -11 1 -20 -4 -20 -5 0 -9 9 -9 20 0 11 2 20 4 20 2 0 6 -9 9
-20z m1247 -64 c0 -3 -4 -8 -10 -11 -5 -3 -10 -1 -10 4 0 6 5 11 10 11 6 0 10
-2 10 -4z m-1965 -86 c-3 -5 -12 -10 -18 -10 -7 0 -6 4 3 10 19 12 23 12 15 0z
m-580 -100 c-3 -5 -12 -10 -18 -10 -7 0 -6 4 3 10 19 12 23 12 15 0z m-52 -40
c-12 -9 -19 -21 -15 -25 4 -5 1 -5 -6 -1 -10 6 -8 13 10 30 13 12 25 20 28 18
3 -2 -5 -12 -17 -22z m512 0 c3 -6 -1 -7 -9 -4 -18 7 -21 14 -7 14 6 0 13 -4
16 -10z m-970 -30 c3 -5 1 -10 -4 -10 -6 0 -11 5 -11 10 0 6 2 10 4 10 3 0 8
-4 11 -10z m420 0 c3 -5 1 -10 -4 -10 -6 0 -11 5 -11 10 0 6 2 10 4 10 3 0 8
-4 11 -10z m6160 1 c3 -5 2 -12 -3 -15 -5 -3 -9 1 -9 9 0 17 3 19 12 6z
m-6345 -61 c0 -5 -5 -10 -11 -10 -5 0 -7 5 -4 10 3 6 8 10 11 10 2 0 4 -4 4
-10z m-254 -66 c3 -34 -9 -21 -14 14 -2 15 0 23 4 20 4 -4 8 -19 10 -34z m229
26 c3 -5 1 -10 -4 -10 -6 0 -11 5 -11 10 0 6 2 10 4 10 3 0 8 -4 11 -10z
m6180 -40 c3 -5 1 -10 -4 -10 -6 0 -11 5 -11 10 0 6 2 10 4 10 3 0 8 -4 11
-10z m-6715 -14 c0 -3 -4 -8 -10 -11 -5 -3 -10 -1 -10 4 0 6 5 11 10 11 6 0
10 -2 10 -4z m520 -6 c0 -5 -2 -10 -4 -10 -3 0 -8 5 -11 10 -3 6 -1 10 4 10 6
0 11 -4 11 -10z m915 -20 c3 -5 1 -10 -4 -10 -6 0 -11 5 -11 10 0 6 2 10 4 10
3 0 8 -4 11 -10z m718 -22 c-4 -7 -8 -16 -8 -20 0 -20 -11 -13 -11 7 0 14 6
25 14 25 8 0 10 -5 5 -12z m-1578 -7 c3 -5 2 -12 -3 -15 -5 -3 -9 1 -9 9 0 17
3 19 12 6z m-35 -65 c0 -3 -4 -8 -10 -11 -5 -3 -10 -1 -10 4 0 6 5 11 10 11 6
0 10 -2 10 -4z m-250 -41 c7 -9 8 -15 2 -15 -5 0 -12 7 -16 15 -3 8 -4 15 -2
15 2 0 9 -7 16 -15z m1373 0 c-3 -9 -8 -14 -10 -11 -3 3 -2 9 2 15 9 16 15 13
8 -4z m1090 -20 c-3 -9 -8 -14 -10 -11 -3 3 -2 9 2 15 9 16 15 13 8 -4z
m-2430 -39 c4 -10 1 -13 -8 -9 -8 3 -12 9 -9 14 7 12 11 11 17 -5z m114 -11
c0 -8 -4 -12 -9 -9 -5 3 -6 10 -3 15 9 13 12 11 12 -6z m-464 -150 c-7 -21
-12 -19 -10 4 0 11 5 18 9 15 4 -3 5 -11 1 -19z m1691 -11 c3 -8 2 -12 -4 -9
-6 3 -10 10 -10 16 0 14 7 11 14 -7z m-699 -34 c-3 -5 -12 -10 -18 -10 -7 0
-6 4 3 10 19 12 23 12 15 0z m5980 -100 c-3 -5 -12 -10 -18 -10 -7 0 -6 4 3
10 19 12 23 12 15 0z m-3385 -26 c0 -2 -7 -4 -15 -4 -8 0 -15 4 -15 10 0 5 7
7 15 4 8 -4 15 -8 15 -10z m-2320 -54 c0 -5 -5 -10 -11 -10 -5 0 -7 5 -4 10 3
6 8 10 11 10 2 0 4 -4 4 -10z m5500 4 c0 -8 -19 -13 -24 -6 -3 5 1 9 9 9 8 0
15 -2 15 -3z m-5569 -107 c-10 -9 -11 -8 -5 6 3 10 9 15 12 12 3 -3 0 -11 -7
-18z m149 -73 c0 -8 -19 -13 -24 -6 -3 5 1 9 9 9 8 0 15 -2 15 -3z m1847 -120
c-3 -3 -12 -4 -19 -1 -8 3 -5 6 6 6 11 1 17 -2 13 -5z m-1912 -34 c3 -5 1 -10
-4 -10 -6 0 -11 5 -11 10 0 6 2 10 4 10 3 0 8 -4 11 -10z m5439 2 c3 -5 -1 -9
-9 -9 -8 0 -12 4 -9 9 3 4 7 8 9 8 2 0 6 -4 9 -8z m-3519 -30 c-3 -3 -11 0
-18 7 -9 10 -8 11 6 5 10 -3 15 -9 12 -12z m-2325 -202 c0 -5 -8 -10 -17 -10
-15 0 -16 2 -3 10 19 12 20 12 20 0z m2370 0 c0 -5 -5 -10 -11 -10 -5 0 -7 5
-4 10 3 6 8 10 11 10 2 0 4 -4 4 -10z m419 -11 c-15 -9 -32 -2 -24 11 3 5 13
6 21 3 12 -4 13 -8 3 -14z m-3572 -41 c-3 -8 -6 -5 -6 6 -1 11 2 17 5 13 3 -3
4 -12 1 -19z m1133 -69 c0 -4 -9 -7 -19 -6 -11 0 -18 4 -16 7 6 9 35 8 35 -1z
m2817 -14 c0 -8 -4 -15 -9 -15 -10 0 -11 14 -1 23 9 10 10 9 10 -8z m-3592 -5
c-3 -5 -12 -10 -18 -10 -7 0 -6 4 3 10 19 12 23 12 15 0z m360 0 c-3 -5 -12
-10 -18 -10 -7 0 -6 4 3 10 19 12 23 12 15 0z m2815 6 c0 -2 -7 -7 -16 -10 -8
-3 -12 -2 -9 4 6 10 25 14 25 6z m-2380 -40 c0 -3 -4 -8 -10 -11 -5 -3 -10 -1
-10 4 0 6 5 11 10 11 6 0 10 -2 10 -4z m2995 -54 c-3 -3 -11 0 -18 7 -9 10 -8
11 6 5 10 -3 15 -9 12 -12z m-2920 -250 c-3 -3 -11 0 -18 7 -9 10 -8 11 6 5
10 -3 15 -9 12 -12z m-1030 -142 c3 -5 1 -10 -4 -10 -6 0 -11 5 -11 10 0 6 2
10 4 10 3 0 8 -4 11 -10z m639 -126 c3 -8 2 -12 -4 -9 -6 3 -10 10 -10 16 0
14 7 11 14 -7z m567 -1 c13 -16 12 -17 -3 -4 -10 7 -18 15 -18 17 0 8 8 3 21
-13z m2119 -33 c0 -5 -5 -10 -11 -10 -5 0 -7 5 -4 10 3 6 8 10 11 10 2 0 4 -4
4 -10z m-3193 -115 c0 -8 -4 -12 -9 -9 -5 3 -6 10 -3 15 9 13 12 11 12 -6z
m3408 -5 c3 -6 -1 -7 -9 -4 -18 7 -21 14 -7 14 6 0 13 -4 16 -10z m2715 -20
c0 -5 -2 -10 -4 -10 -3 0 -8 5 -11 10 -3 6 -1 10 4 10 6 0 11 -4 11 -10z
m-2500 -14 c0 -3 -4 -8 -10 -11 -5 -3 -10 -1 -10 4 0 6 5 11 10 11 6 0 10 -2
10 -4z m2230 -6 c0 -5 -2 -10 -4 -10 -3 0 -8 5 -11 10 -3 6 -1 10 4 10 6 0 11
-4 11 -10z m-5430 -20 c0 -5 -2 -10 -4 -10 -3 0 -8 5 -11 10 -3 6 -1 10 4 10
6 0 11 -4 11 -10z m930 -36 c0 -8 -19 -13 -24 -6 -3 5 1 9 9 9 8 0 15 -2 15
-3z m950 -8 c0 -2 -8 -10 -17 -17 -16 -13 -17 -12 -4 4 13 16 21 21 21 13z
m-1113 -38 c-3 -8 -6 -5 -6 6 -1 11 2 17 5 13 3 -3 4 -12 1 -19z m548 -27 c3
-5 2 -12 -3 -15 -5 -3 -9 1 -9 9 0 17 3 19 12 6z m-1615 -21 c0 -5 -5 -10 -11
-10 -5 0 -7 5 -4 10 3 6 8 10 11 10 2 0 4 -4 4 -10z m1732 -52 c-8 -8 -9 -4
-5 13 4 13 8 18 11 10 2 -7 -1 -18 -6 -23z m-1712 12 c0 -5 -5 -10 -11 -10 -5
0 -7 5 -4 10 3 6 8 10 11 10 2 0 4 -4 4 -10z m988 -15 c-3 -3 -9 2 -12 12 -6
14 -5 15 5 6 7 -7 10 -15 7 -18z m4527 -65 c3 -6 -1 -7 -9 -4 -18 7 -21 14 -7
14 6 0 13 -4 16 -10z m-3902 -50 c3 -11 1 -18 -3 -15 -5 3 -10 -1 -13 -7 -2
-7 -4 1 -3 19 1 34 10 35 19 3z m927 -160 c0 -5 -5 -10 -11 -10 -5 0 -7 5 -4
10 3 6 8 10 11 10 2 0 4 -4 4 -10z m-796 -126 c3 -8 2 -12 -4 -9 -6 3 -10 10
-10 16 0 14 7 11 14 -7z m676 6 c0 -5 -2 -10 -4 -10 -3 0 -8 5 -11 10 -3 6 -1
10 4 10 6 0 11 -4 11 -10z m-1651 -24 c8 -10 9 -16 1 -21 -6 -4 -9 -1 -8 7 2
7 -3 12 -9 11 -7 -2 -13 2 -13 7 0 14 16 12 29 -4z m1678 -11 c0 -8 -4 -12 -9
-9 -5 3 -6 10 -3 15 9 13 12 11 12 -6z m-860 -114 c0 -11 -5 -18 -9 -15 -4 3
-5 11 -1 19 7 21 12 19 10 -4z m8 -69 c2 -26 -11 -20 -18 8 -3 13 -1 20 6 17
6 -2 11 -13 12 -25z m62 -134 c-3 -8 -6 -5 -6 6 -1 11 2 17 5 13 3 -3 4 -12 1
-19z m-22 2 c3 -5 1 -10 -4 -10 -6 0 -11 5 -11 10 0 6 2 10 4 10 3 0 8 -4 11
-10z m855 4 c0 -8 -19 -13 -24 -6 -3 5 1 9 9 9 8 0 15 -2 15 -3z m-1575 -194
c-3 -5 -12 -10 -18 -10 -7 0 -6 4 3 10 19 12 23 12 15 0z m175 -116 c0 -8 -19
-13 -24 -6 -3 5 1 9 9 9 8 0 15 -2 15 -3z m800 -58 c0 -2 -7 -7 -16 -10 -8 -3
-12 -2 -9 4 6 10 25 14 25 6z m-315 -196 c3 -5 1 -10 -4 -10 -6 0 -11 5 -11
10 0 6 2 10 4 10 3 0 8 -4 11 -10z m60 -28 c-3 -3 -11 0 -18 7 -9 10 -8 11 6
5 10 -3 15 -9 12 -12z m582 -168 c-3 -3 -12 -4 -19 -1 -8 3 -5 6 6 6 11 1 17
-2 13 -5z m200 -46 c-3 -8 -6 -5 -6 6 -1 11 2 17 5 13 3 -3 4 -12 1 -19z m543
-31 c0 -5 -7 -7 -15 -4 -8 4 -17 2 -21 -4 -4 -7 -10 -6 -18 0 -7 6 -17 7 -21
3 -5 -4 -6 -2 -2 3 7 13 77 14 77 2z"/>
</g>
</svg>
